# File created by Blade
# Date/Time:  Wed Jan 21 16:27:48 2015
#---------------------------------------------------------
:version 1.10
:name HOM
:units
  mass 1.0
  length 1.000000
  angle deg
:documentation
     Acclaim Skeleton File
:root
   axis xyz
   order TX TY TZ RX RY RZ
   position 0.000000 0.000000 0.000000
   orientation 0 0 0
:bonedata
   begin
      id 1
      name Spine_dum
      direction 0.000000 1.000000 0.000000
      length 7.067664
      axis 0.0 0.0 0.0 xyz
   end
   begin
      id 2
      name LeftUpLeg_dum
      direction 1.000000 0.000000 0.000000
      length 4.013002
      axis 0.0 0.0 0.0 xyz
   end
   begin
      id 3
      name RightUpLeg_dum
      direction -1.000000 0.000000 0.000000
      length 4.013002
      axis 0.0 0.0 0.0 xyz
   end
   begin
      id 4
      name Spine
      direction 0.000000 1.000000 0.000000
      length 0.000000
      axis 0.0 0.0 0.0 xyz
      dof rx ry rz
   end
   begin
      id 5
      name Spine_dum1
      direction 0.000000 1.000000 0.000000
      length 15.039886
      axis 0.0 0.0 0.0 xyz
   end
   begin
      id 6
      name Spine_dum2
      direction 0.000000 1.000000 0.000000
      length 10.530368
      axis 0.0 0.0 0.0 xyz
   end
   begin
      id 7
      name Spine_dum3
      direction 0.000000 1.000000 0.000000
      length 10.530368
      axis 0.0 0.0 0.0 xyz
   end
   begin
      id 8
      name Head
      direction 0.000000 1.000000 0.000000
      length 4.527550
      axis 0.0 0.0 0.0 xyz
      dof rx ry rz
   end
   begin
      id 9
      name LeftShoulder
      direction 1.000000 0.000000 0.000000
      length 7.028855
      axis 0.0 0.0 -90.0 xyz
      dof rx ry rz
   end
   begin
      id 10
      name LeftArm
      direction 1.000000 0.000000 0.000000
      length 10.797705
      axis 0.0 0.0 -90.0 xyz
      dof rx ry rz
   end
   begin
      id 11
      name LeftForeArm
      direction 1.000000 0.000000 0.000000
      length 7.907442
      axis 0.0 0.0 -90.0 xyz
      dof ry rz rx
   end
   begin
      id 12
      name LeftHand
      direction 0.000000 0.000000 0.000000
      length 0.000000
      axis 0.0 0.0 -90.0 xyz
      dof rx ry rz
   end
   begin
      id 13
      name LeftHand_dum1
      direction 0.000000 0.000000 0.000000
      length 0.000000
      axis 0.0 0.0 -90.0 xyz
   end
   begin
      id 14
      name LeftHand_dum2
      direction 1.000000 0.000000 0.000000
      length 3.937000
      axis 0.0 0.0 -90.0 xyz
   end
   begin
      id 15
      name LeftHandThumb1
      direction 0.000000 0.000000 1.000000
      length 3.937000
      axis 0.0 0.0 -90.0 xyz
      dof rx rz ry
   end
   begin
      id 16
      name RightShoulder
      direction -1.000000 0.000000 0.000000
      length 7.028855
      axis 0.0 0.0 90.0 xyz
      dof rx ry rz
   end
   begin
      id 17
      name RightArm
      direction -1.000000 0.000000 0.000000
      length 10.797705
      axis 0.0 0.0 90.0 xyz
      dof rx ry rz
   end
   begin
      id 18
      name RightForeArm
      direction -1.000000 0.000000 0.000000
      length 7.907442
      axis 0.0 0.0 90.0 xyz
      dof ry rz rx
   end
   begin
      id 19
      name RightHand
      direction 0.000000 0.000000 0.000000
      length 0.000000
      axis 0.0 0.0 90.0 xyz
      dof rx ry rz
   end
   begin
      id 20
      name RightHand_dum1
      direction 0.000000 0.000000 0.000000
      length 0.000000
      axis 0.0 0.0 90.0 xyz
   end
   begin
      id 21
      name RightHand_dum2
      direction -1.000000 0.000000 0.000000
      length 3.937000
      axis 0.0 0.0 90.0 xyz
   end
   begin
      id 22
      name RightHandThumb1
      direction 0.000000 0.000000 1.000000
      length 3.937000
      axis 0.0 0.0 90.0 xyz
      dof rx rz ry
   end
   begin
      id 23
      name LeftUpLeg
      direction 0.000000 -1.000000 0.000000
      length 16.899758
      axis 0.0 0.0 0.0 xyz
      dof rx ry rz
   end
   begin
      id 24
      name LeftLeg
      direction 0.000000 -1.000000 0.000000
      length 17.389183
      axis 0.0 0.0 0.0 xyz
      dof rx ry rz
   end
   begin
      id 25
      name LeftFoot
      direction 0.000000 -0.258819 0.965926
      length 4.924528
      axis 15.0 0.0 0.0 xyz
      dof rx ry rz
   end
   begin
      id 26
      name LeftToeBase
      direction 0.000000 0.000000 1.000000
      length 2.952750
      axis 0.0 0.0 0.0 xyz
      dof rx ry rz
   end
   begin
      id 27
      name RightUpLeg
      direction 0.000000 -1.000000 0.000000
      length 16.899758
      axis 0.0 0.0 0.0 xyz
      dof rx ry rz
   end
   begin
      id 28
      name RightLeg
      direction 0.000000 -1.000000 0.000000
      length 17.389183
      axis 0.0 0.0 0.0 xyz
      dof rx ry rz
   end
   begin
      id 29
      name RightFoot
      direction 0.000000 -0.258819 0.965926
      length 4.924528
      axis 15.0 0.0 0.0 xyz
      dof rx ry rz
   end
   begin
      id 30
      name RightToeBase
      direction 0.000000 0.000000 1.000000
      length 2.952750
      axis 0.0 0.0 0.0 xyz
      dof rx ry rz
   end
:hierarchy
   begin
      root Spine_dum LeftUpLeg_dum RightUpLeg_dum
      Spine_dum Spine
      LeftUpLeg_dum LeftUpLeg
      RightUpLeg_dum RightUpLeg
      Spine Spine_dum1 Spine_dum2 Spine_dum3
      Spine_dum1 Head
      Spine_dum2 LeftShoulder
      Spine_dum3 RightShoulder
      LeftShoulder LeftArm
      LeftArm LeftForeArm
      LeftForeArm LeftHand
      LeftHand LeftHand_dum1 LeftHand_dum2
      LeftHand_dum1 LeftHandThumb1
      RightShoulder RightArm
      RightArm RightForeArm
      RightForeArm RightHand
      RightHand RightHand_dum1 RightHand_dum2
      RightHand_dum1 RightHandThumb1
      LeftUpLeg LeftLeg
      LeftLeg LeftFoot
      LeftFoot LeftToeBase
      RightUpLeg RightLeg
      RightLeg RightFoot
      RightFoot RightToeBase
   end

# File created by Blade
# Date/Time:  Wed Jan 21 16:27:40 2015
# Frame Rate: 120.000 fps
#------------------------------------------------------
:FULLY-SPECIFIED
:DEGREES
131
root 19.372823 35.456848 -23.693278 -177.601170 -1.453479 -178.591203
Spine -9.213917 3.036557 -1.681430
Head 24.197356 -15.286256 1.911938
LeftShoulder -12.532430 -26.402728 13.285466
LeftArm -3.238476 2.567557 -16.126708
LeftForeArm 4.313449 -0.000000 -0.534147
LeftHand -8.183497 -0.000000 -4.093462
LeftHandThumb1 -26.253704 0.000000 33.147579
RightShoulder -12.901276 -11.487357 -3.881417
RightArm 5.566736 39.419882 24.562145
RightForeArm -24.722715 -0.000000 9.868835
RightHand -9.313938 -0.000000 -1.454070
RightHandThumb1 -24.326973 -0.000000 -32.862282
LeftUpLeg 6.924520 8.697501 1.313550
LeftLeg -5.069353 -0.000000 0.000000
LeftFoot -22.512166 29.582495 -11.824700
LeftToeBase 25.567177 -0.000000 -0.000000
RightUpLeg 4.306284 -5.008462 -0.516616
RightLeg -0.259712 -0.000000 0.000000
RightFoot -22.873422 -23.217564 16.644556
RightToeBase 22.786523 -0.000000 -0.000000
132
root 19.344728 35.460710 -23.671865 -177.724345 -1.296231 -178.580316
Spine -8.936643 3.154360 -1.699275
Head 24.794106 -15.789233 1.975268
LeftShoulder -12.552637 -26.094440 12.893038
LeftArm -3.614239 2.719856 -17.081050
LeftForeArm 4.121379 -0.000000 -0.397935
LeftHand -8.129369 -0.000000 -4.015509
LeftHandThumb1 -26.253704 0.000000 33.147579
RightShoulder -12.989554 -11.640826 -3.500181
RightArm 5.915251 39.257475 25.769820
RightForeArm -24.513981 0.000000 10.070907
RightHand -9.405702 -0.000000 -1.445195
RightHandThumb1 -24.326973 -0.000000 -32.862282
LeftUpLeg 7.008631 8.798858 1.276893
LeftLeg -5.019139 -0.000000 0.000000
LeftFoot -22.542342 29.650267 -11.835789
LeftToeBase 25.506650 -0.000000 -0.000000
RightUpLeg 4.261059 -4.882325 -0.566652
RightLeg -0.039227 -0.000000 0.000000
RightFoot -22.900641 -23.179757 16.633895
RightToeBase 22.905919 -0.000000 -0.000000
133
root 19.315556 35.464749 -23.646692 -177.865099 -1.100579 -178.579047
Spine -8.608565 3.282805 -1.715839
Head 25.379529 -16.223136 2.050079
LeftShoulder -12.608084 -25.719934 12.469308
LeftArm -3.925303 2.744857 -18.029608
LeftForeArm 4.217043 0.000000 -0.301151
LeftHand -8.027679 -0.000000 -4.003356
LeftHandThumb1 -26.253704 0.000000 33.147579
RightShoulder -13.017236 -11.872115 -3.124259
RightArm 6.238498 39.183955 27.025042
RightForeArm -24.413697 -0.000000 10.274070
RightHand -9.253153 -0.000000 -1.570640
RightHandThumb1 -24.326973 -0.000000 -32.862282
LeftUpLeg 7.105047 8.915968 1.228575
LeftLeg -4.958159 -0.000000 0.000000
LeftFoot -22.577312 29.739646 -11.835197
LeftToeBase 25.520025 -0.000000 -0.000000
RightUpLeg 4.210260 -4.717412 -0.629729
RightLeg 0.200927 -0.000000 -0.000000
RightFoot -22.929161 -23.148330 16.663065
RightToeBase 22.934535 -0.000000 -0.000000
134
root 19.286448 35.469009 -23.622906 -178.034419 -0.905323 -178.583153
Spine -8.244930 3.386313 -1.744262
Head 25.950532 -16.690041 2.137596
LeftShoulder -12.655425 -25.390083 12.095003
LeftArm -4.336581 2.735989 -19.045893
LeftForeArm 4.210158 -0.000000 -0.129483
LeftHand -8.042519 -0.000000 -3.865202
LeftHandThumb1 -26.253704 0.000000 33.147579
RightShoulder -13.034847 -12.010370 -2.761516
RightArm 6.527540 39.059981 28.308661
RightForeArm -24.512645 -0.000000 10.563321
RightHand -9.282000 -0.000000 -1.725369
RightHandThumb1 -24.326973 -0.000000 -32.862282
LeftUpLeg 7.224196 9.055618 1.184978
LeftLeg -4.880924 -0.000000 0.000000
LeftFoot -22.631189 29.784426 -11.895802
LeftToeBase 25.454389 -0.000000 -0.000000
RightUpLeg 4.200134 -4.545562 -0.699212
RightLeg 0.422815 -0.000000 -0.000000
RightFoot -22.955745 -23.105302 16.718707
RightToeBase 22.893393 -0.000000 -0.000000
135
root 19.254679 35.472931 -23.595538 -178.168236 -0.724125 -178.581376
Spine -7.891774 3.456504 -1.749973
Head 26.465947 -17.144411 2.203345
LeftShoulder -12.727185 -25.198633 11.720331
LeftArm -4.829401 3.213450 -20.089989
LeftForeArm 3.848016 -0.000000 0.072502
LeftHand -7.960310 -0.000000 -3.699037
LeftHandThumb1 -26.253704 0.000000 33.147579
RightShoulder -13.090805 -12.169795 -2.444149
RightArm 6.896856 38.911877 29.759582
RightForeArm -24.261143 -0.000000 11.056396
RightHand -9.649597 -0.000000 -1.742180
RightHandThumb1 -24.326973 -0.000000 -32.862282
LeftUpLeg 7.291020 9.181036 1.135704
LeftLeg -4.786722 -0.000000 0.000000
LeftFoot -22.677727 29.857576 -11.881267
LeftToeBase 25.423653 -0.000000 -0.000000
RightUpLeg 4.139945 -4.384140 -0.764464
RightLeg 0.664136 -0.000000 -0.000000
RightFoot -22.970430 -23.058930 16.769229
RightToeBase 22.924118 -0.000000 -0.000000
136
root 19.223161 35.476357 -23.570078 -178.315025 -0.539367 -178.578911
Spine -7.531668 3.577771 -1.774475
Head 26.979111 -17.673659 2.342152
LeftShoulder -12.763260 -24.907370 11.315015
LeftArm -5.222986 3.274036 -21.147882
LeftForeArm 3.599888 -0.000000 0.208538
LeftHand -7.830487 -0.000000 -3.505877
LeftHandThumb1 -26.253704 0.000000 33.147579
RightShoulder -13.163800 -12.322235 -2.097182
RightArm 7.164732 38.784230 31.151894
RightForeArm -24.287937 0.000000 11.507310
RightHand -9.744445 0.000000 -1.921906
RightHandThumb1 -24.326973 -0.000000 -32.862282
LeftUpLeg 7.387742 9.312908 1.092238
LeftLeg -4.723465 -0.000000 0.000000
LeftFoot -22.688239 29.934365 -11.840792
LeftToeBase 25.385865 -0.000000 -0.000000
RightUpLeg 4.094973 -4.246148 -0.832617
RightLeg 0.905305 -0.000000 -0.000000
RightFoot -22.979397 -22.953559 16.889049
RightToeBase 22.760434 -0.000000 -0.000000
137
root 19.187667 35.480861 -23.542893 -178.470927 -0.355763 -178.595305
Spine -7.140130 3.634763 -1.813654
Head 27.472313 -18.145358 2.456279
LeftShoulder -12.878638 -24.471381 10.938221
LeftArm -5.548860 3.091141 -22.261847
LeftForeArm 3.425076 -0.000000 0.372510
LeftHand -7.794095 -0.000000 -3.237788
LeftHandThumb1 -26.253704 0.000000 33.147579
RightShoulder -13.180620 -12.506958 -1.713015
RightArm 7.466382 38.604400 32.534524
RightForeArm -24.145905 -0.000000 11.964380
RightHand -9.902666 0.000000 -1.971429
RightHandThumb1 -24.326973 -0.000000 -32.862282
LeftUpLeg 7.476988 9.457502 1.022590
LeftLeg -4.635078 -0.000000 0.000000
LeftFoot -22.732762 29.990844 -11.875962
LeftToeBase 25.324686 -0.000000 -0.000000
RightUpLeg 4.054391 -4.104872 -0.925194
RightLeg 1.152265 -0.000000 -0.000000
RightFoot -23.008176 -22.910278 16.844906
RightToeBase 22.924039 -0.000000 -0.000000
138
root 19.154311 35.485806 -23.512510 -178.650744 -0.146745 -178.595631
Spine -6.691488 3.733896 -1.842638
Head 27.933888 -18.655009 2.607600
LeftShoulder -12.965840 -24.189130 10.562149
LeftArm -5.911767 2.917906 -23.397943
LeftForeArm 3.313080 -0.000000 0.476438
LeftHand -7.799526 -0.000000 -2.863151
LeftHandThumb1 -26.253704 0.000000 33.147579
RightShoulder -13.231413 -12.696624 -1.275592
RightArm 7.790276 38.349648 33.889049
RightForeArm -23.996688 0.000000 12.392966
RightHand -9.884091 -0.000000 -2.222485
RightHandThumb1 -24.326973 -0.000000 -32.862282
LeftUpLeg 7.577952 9.677109 0.980931
LeftLeg -4.526421 -0.000000 0.000000
LeftFoot -22.767946 30.008795 -11.871784
LeftToeBase 25.333445 -0.000000 -0.000000
RightUpLeg 4.004586 -3.927204 -0.996250
RightLeg 1.443761 -0.000000 -0.000000
RightFoot -23.036294 -22.823028 17.004586
RightToeBase 22.763369 -0.000000 -0.000000
139
root 19.115098 35.490068 -23.482096 -178.825886 0.054198 -178.613243
Spine -6.249417 3.808148 -1.865607
Head 28.411273 -19.144369 2.724697
LeftShoulder -13.094655 -23.884920 10.195743
LeftArm -6.248788 2.634514 -24.573547
LeftForeArm 2.997150 -0.000000 0.604756
LeftHand -7.779173 -0.000000 -2.602389
LeftHandThumb1 -26.253704 0.000000 33.147579
RightShoulder -13.266121 -12.950944 -0.795319
RightArm 8.129275 38.202891 35.205176
RightForeArm -24.179911 -0.000000 12.916539
RightHand -10.101716 -0.000000 -2.172555
RightHandThumb1 -24.326973 -0.000000 -32.862282
LeftUpLeg 7.685994 9.852038 0.906409
LeftLeg -4.445577 -0.000000 0.000000
LeftFoot -22.796134 30.074018 -11.874540
LeftToeBase 25.278673 -0.000000 -0.000000
RightUpLeg 3.960346 -3.798407 -1.097793
RightLeg 1.716928 -0.000000 -0.000000
RightFoot -23.059750 -22.745276 16.972050
RightToeBase 22.942661 -0.000000 -0.000000
140
root 19.077771 35.494995 -23.451872 -179.007468 0.244585 -178.628436
Spine -5.788360 3.884442 -1.916567
Head 28.808968 -19.722984 2.914940
LeftShoulder -13.160921 -23.758758 9.898728
LeftArm -6.745004 2.366268 -25.776373
LeftForeArm 2.811467 -0.000000 0.678375
LeftHand -7.499413 0.000000 -2.337352
LeftHandThumb1 -26.253704 0.000000 33.147579
RightShoulder -13.334922 -13.152289 -0.283946
RightArm 8.462765 37.897329 36.495684
RightForeArm -24.386486 -0.000000 13.373637
RightHand -10.305486 0.000000 -2.126388
RightHandThumb1 -24.326973 -0.000000 -32.862282
LeftUpLeg 7.786721 10.052295 0.842503
LeftLeg -4.345992 -0.000000 0.000000
LeftFoot -22.825985 30.114418 -11.886771
LeftToeBase 25.236223 -0.000000 -0.000000
RightUpLeg 3.925231 -3.651210 -1.188600
RightLeg 1.985880 -0.000000 -0.000000
RightFoot -23.057151 -22.680668 17.006275
RightToeBase 22.849558 -0.000000 -0.000000
